<?xml version="1.0" encoding="iso-8859-1"?>
<!-- Generator: Adobe Illustrator 19.0.0, SVG Export Plug-In . SVG Version: 6.00 Build 0)  -->
<svg version="1.1" id="Layer_1" xmlns="http://www.w3.org/2000/svg" xmlns:xlink="http://www.w3.org/1999/xlink" x="0px" y="0px"
	 viewBox="0 0 476.127 476.127" style="enable-background:new 0 0 476.127 476.127;" xml:space="preserve">
<g>
	<path style="fill:#FFDE55;" d="M362.958,149.034c11.435,16.047,19.877,34.437,24.449,54.414
		c20.953,3.409,39.856,13.001,54.779,26.829c11.56-9.694,20.77-22.11,26.69-36.402c20.046-48.396-3.019-104.078-51.414-124.123
		c-15.406-6.382-32.273-8.596-48.779-6.406l-34.26,4.546l21.012,27.44C367.174,110.663,370.02,131.159,362.958,149.034z"/>
	<path style="fill:#2488FF;" d="M238.063,84.644c-12.659,0-24.991,1.55-36.81,4.467c-55.463,13.693-99.559,57.644-112.534,114.336
		C38.476,211.623,0,255.322,0,307.838c0,58.318,47.445,105.763,105.763,105.763h132.3V84.644z"/>
	<path style="fill:#006DF0;" d="M387.407,203.448c-15.739-68.772-77.271-118.804-149.343-118.804v328.958h132.3
		c58.318,0,105.763-47.445,105.763-105.763c0-20.127-5.657-38.956-15.457-54.99C444.9,227.047,418.394,208.49,387.407,203.448z"/>
</g>
<g>
</g>
<g>
</g>
<g>
</g>
<g>
</g>
<g>
</g>
<g>
</g>
<g>
</g>
<g>
</g>
<g>
</g>
<g>
</g>
<g>
</g>
<g>
</g>
<g>
</g>
<g>
</g>
<g>
</g>
</svg>
