<?xml version="1.0" encoding="UTF-8" standalone="no"?>
<!-- Generator: Adobe Illustrator 19.0.0, SVG Export Plug-In . SVG Version: 6.00 Build 0)  -->

<svg
   xmlns:dc="http://purl.org/dc/elements/1.1/"
   xmlns:cc="http://creativecommons.org/ns#"
   xmlns:rdf="http://www.w3.org/1999/02/22-rdf-syntax-ns#"
   xmlns:svg="http://www.w3.org/2000/svg"
   xmlns="http://www.w3.org/2000/svg"
   xmlns:sodipodi="http://sodipodi.sourceforge.net/DTD/sodipodi-0.dtd"
   xmlns:inkscape="http://www.inkscape.org/namespaces/inkscape"
   version="1.1"
   id="Layer_1"
   x="0px"
   y="0px"
   viewBox="0 0 490.999 490.999"
   style="enable-background:new 0 0 490.999 490.999;"
   xml:space="preserve"
   sodipodi:docname="half-cloudy.svg"
   inkscape:version="0.92.1 r15371"><metadata
     id="metadata57"><rdf:RDF><cc:Work
         rdf:about=""><dc:format>image/svg+xml</dc:format><dc:type
           rdf:resource="http://purl.org/dc/dcmitype/StillImage" /><dc:title></dc:title></cc:Work></rdf:RDF></metadata><defs
     id="defs55" /><sodipodi:namedview
     pagecolor="#ffffff"
     bordercolor="#666666"
     borderopacity="1"
     objecttolerance="10"
     gridtolerance="10"
     guidetolerance="10"
     inkscape:pageopacity="0"
     inkscape:pageshadow="2"
     inkscape:window-width="1920"
     inkscape:window-height="1001"
     id="namedview53"
     showgrid="false"
     inkscape:zoom="7.75"
     inkscape:cx="391.91986"
     inkscape:cy="396.60999"
     inkscape:window-x="-9"
     inkscape:window-y="-9"
     inkscape:window-maximized="1"
     inkscape:current-layer="Layer_1" /><g
     id="g20"><path
       style="fill:#BDDBFF;"
       d="M241.146,20.25c-12.659,0-24.991,1.55-36.81,4.467c-55.463,13.693-99.559,57.644-112.534,114.336   c-50.244,8.175-88.72,51.875-88.72,104.391c0,58.318,47.445,105.763,105.763,105.763h132.3V20.25z"
       id="path14" /><path
       style="fill:#9BC9FF;"
       d="M390.489,139.054C374.75,70.282,313.218,20.25,241.146,20.25v328.958h132.3   c58.318,0,105.763-47.445,105.763-105.763c0-20.127-5.657-38.956-15.457-54.99C447.983,162.654,421.477,144.096,390.489,139.054z"
       id="path16" /><path
       style="fill:#ffcd00"
       d="M 459.575,102.872 C 457.075,91.044 452.405,80.008 446.002,70.2 L 466.071,50.131 437.786,21.847 417.717,41.916 C 407.909,35.513 396.874,30.843 385.045,28.343 V 0 h -40 v 28.368 c -10.252,2.174 -20.11,6.001 -29.145,11.328 36.456,20.387 64.367,57.239 74.589,99.358 v 0 c 22.251,3.998 43.812,15.273 58.919,30.878 4.713,-8.46 8.135,-17.58 10.14,-27.061 h 28.368 v -40 h -28.341 z"
       id="path18"
       inkscape:connector-curvature="0"
       sodipodi:nodetypes="cccccccccccccccccc" /></g><g
     id="g22" /><g
     id="g24" /><g
     id="g26" /><g
     id="g28" /><g
     id="g30" /><g
     id="g32" /><g
     id="g34" /><g
     id="g36" /><g
     id="g38" /><g
     id="g40" /><g
     id="g42" /><g
     id="g44" /><g
     id="g46" /><g
     id="g48" /><g
     id="g50" /></svg>